<svg width="512" height="512" viewBox="0 0 512 512" fill="none" xmlns="http://www.w3.org/2000/svg" data-ai-logo="true">
<rect width="512" height="512" fill="#FFFFFF"/>
<path d="M256 512C114.615 512 0 397.385 0 256C0 114.615 114.615 0 256 0C397.385 0 512 114.615 512 256C512 397.385 397.385 512 256 512ZM256 40.96C137.958 40.96 40.96 137.958 40.96 256C40.96 374.042 137.958 471.04 256 471.04C374.042 471.04 471.04 374.042 471.04 256C471.04 137.958 374.042 40.96 256 40.96Z" fill="#800000"/>
<path d="M189.44 170.24L209.92 170.24L239.616 246.036L270.336 170.24H290.56L249.856 269.056L249.024 271.36L290.56 368.64H269.312L239.616 295.424L209.92 368.64H189.44L230.016 271.104L189.44 170.24Z" fill="#800000"/>
<path d="M312.32 143.36L353.28 143.36L353.28 368.64L312.32 368.64L312.32 143.36Z" fill="#800000"/>
</svg>